<?xml version="1.0" standalone="no"?>
<!DOCTYPE svg PUBLIC "-//W3C//DTD SVG 20010904//EN"
 "http://www.w3.org/TR/2001/REC-SVG-20010904/DTD/svg10.dtd">
<svg version="1.0" xmlns="http://www.w3.org/2000/svg"
 width="512.000000pt" height="512.000000pt" viewBox="0 0 512.000000 512.000000"
 preserveAspectRatio="xMidYMid meet">
<metadata>
Created by potrace 1.12, written by Peter Selinger 2001-2015
</metadata>
<g transform="translate(0.000000,512.000000) scale(0.100000,-0.100000)"
fill="#000000" stroke="none">
<path d="M1080 5107 c0 -21 -48 -39 -128 -47 -53 -5 -83 -14 -112 -34 -23 -15
-61 -31 -86 -35 -27 -5 -54 -18 -69 -35 -13 -14 -30 -26 -37 -26 -74 0 -458
-385 -458 -458 0 -6 -13 -27 -30 -45 -16 -19 -30 -45 -30 -58 0 -13 -16 -55
-35 -93 -24 -49 -35 -83 -35 -114 0 -62 -20 -124 -42 -130 -17 -4 -18 -69 -18
-1503 0 -1246 2 -1499 13 -1499 22 0 39 -49 47 -132 5 -59 13 -87 33 -115 14
-21 29 -56 33 -78 3 -22 17 -51 29 -65 12 -14 32 -45 44 -70 37 -79 61 -109
194 -244 129 -129 163 -157 242 -194 22 -11 48 -29 58 -40 11 -11 38 -24 60
-27 50 -8 87 -30 87 -50 0 -13 213 -15 1750 -15 1537 0 1750 2 1750 15 0 20
36 41 85 50 21 4 54 20 73 36 18 16 38 29 44 29 31 0 126 76 248 198 134 135
162 169 199 249 11 23 29 51 40 62 11 11 23 37 26 58 9 57 23 84 45 90 20 5
20 21 20 1744 0 1470 -2 1739 -14 1739 -21 0 -38 26 -47 76 -5 28 -21 60 -39
80 -16 19 -30 40 -30 47 0 47 -280 361 -357 400 -16 9 -35 22 -42 31 -7 8 -25
17 -40 21 -16 3 -41 19 -56 35 -19 19 -39 30 -57 30 -15 0 -57 16 -94 35 -49
26 -78 35 -115 35 -56 0 -116 21 -125 45 -6 13 -163 15 -1515 15 -1254 0
-1509 -2 -1509 -13z m2999 -332 c30 -14 81 -29 112 -34 35 -4 73 -18 96 -33
21 -14 48 -29 60 -33 110 -32 355 -280 396 -400 6 -16 22 -45 36 -64 l26 -34
0 -1648 0 -1647 -22 -31 c-13 -16 -34 -54 -48 -83 -47 -97 -59 -114 -162 -217
-104 -104 -126 -121 -218 -166 -27 -13 -63 -33 -80 -44 -30 -21 -32 -21 -1686
-21 -1623 0 -1657 0 -1681 19 -13 11 -49 31 -79 46 -88 42 -119 65 -219 167
-91 91 -159 184 -175 238 -4 14 -14 33 -22 42 -20 23 -42 86 -43 124 0 18 -12
58 -28 90 l-27 59 0 1420 0 1420 27 65 c15 36 29 88 32 115 4 28 14 61 24 75
10 14 37 64 61 111 36 73 60 103 150 193 112 112 120 118 210 162 30 15 69 37
87 49 18 13 55 24 86 28 29 3 78 17 108 31 l55 26 1435 0 1435 0 54 -25z"/>
<path d="M2142 4658 c-18 -18 -14 -83 7 -109 18 -23 18 -24 -1 -50 -24 -32
-22 -4 -20 -430 2 -266 5 -349 15 -363 15 -20 90 -33 131 -22 53 13 56 34 56
418 0 337 -1 355 -20 386 l-21 34 21 32 c24 40 25 64 4 94 -13 19 -24 22 -88
22 -43 0 -77 -5 -84 -12z"/>
<path d="M1260 4490 c-16 -16 -20 -33 -20 -88 0 -101 2 -102 184 -102 82 0
156 -5 167 -10 20 -11 26 -45 9 -55 -6 -4 -20 -25 -32 -48 -11 -23 -30 -54
-42 -68 -11 -15 -30 -41 -41 -59 -11 -19 -33 -54 -50 -80 -16 -26 -39 -61 -50
-80 -11 -18 -30 -45 -43 -60 -52 -65 -67 -144 -29 -154 40 -10 652 -7 684 4
36 13 53 46 53 105 0 54 -13 90 -37 101 -10 4 -85 11 -167 14 -193 7 -199 14
-111 140 45 65 65 95 103 155 91 143 117 182 139 208 27 33 29 59 7 81 -13 14
-60 16 -360 16 -331 0 -345 -1 -364 -20z"/>
<path d="M2444 4489 c-26 -29 -24 -157 2 -176 13 -10 81 -13 267 -13 152 0
256 -4 268 -10 24 -13 25 -42 1 -63 -16 -15 -50 -17 -270 -17 l-252 0 -16 -25
c-14 -21 -16 -58 -17 -238 0 -225 5 -252 46 -262 12 -3 176 -5 364 -3 341 3
343 3 365 26 23 22 23 23 26 375 2 193 0 362 -3 374 -12 50 -37 53 -413 53
-342 0 -349 0 -368 -21z m537 -509 c21 -12 25 -40 7 -58 -8 -8 -61 -12 -173
-12 -166 0 -185 4 -185 42 0 9 8 22 18 27 23 14 308 14 333 1z"/>
<path d="M3327 4492 c-23 -26 -24 -154 -1 -176 13 -14 52 -16 269 -16 238 0
254 -1 276 -20 l24 -20 -24 -20 c-22 -19 -38 -20 -270 -20 -197 0 -251 -3
-266 -14 -16 -12 -20 -29 -23 -94 -6 -127 -17 -122 289 -122 258 0 289 -4 289
-40 0 -36 -31 -40 -289 -40 -306 0 -295 5 -289 -122 3 -65 7 -82 23 -94 15
-11 81 -14 356 -14 185 0 351 3 368 6 17 4 36 16 42 26 7 13 11 150 11 391 l0
371 -22 18 c-20 17 -51 18 -385 18 -338 0 -363 -1 -378 -18z"/>
<path d="M2568 3539 c-38 -11 -107 -82 -130 -136 -7 -15 -20 -39 -30 -52 -19
-24 -25 -71 -9 -71 4 0 20 9 35 21 36 28 96 36 127 16 13 -9 49 -21 79 -28 30
-6 65 -18 78 -25 13 -8 42 -25 66 -38 61 -33 194 -134 235 -179 19 -21 50 -62
68 -90 51 -82 54 -84 76 -56 24 31 120 183 176 279 24 41 54 91 67 110 31 47
44 85 44 126 0 46 -39 84 -86 84 -28 0 -40 -8 -73 -50 -22 -28 -43 -60 -47
-73 -19 -63 -87 -79 -123 -28 -27 37 -125 107 -216 155 -66 34 -77 36 -185 41
-65 2 -131 0 -152 -6z"/>
<path d="M2482 3222 c-27 -8 -72 -66 -103 -132 -12 -25 -29 -56 -39 -70 -9
-14 -22 -41 -29 -60 -6 -19 -22 -57 -36 -84 -19 -37 -25 -65 -25 -113 0 -61 2
-65 42 -109 49 -53 106 -96 167 -124 23 -11 54 -29 68 -40 30 -23 97 -34 151
-25 31 5 54 21 107 73 65 64 86 91 152 196 51 80 63 112 63 165 l0 49 -82 69
c-89 74 -126 99 -203 138 -27 14 -64 35 -82 46 -34 21 -113 33 -151 21z m70
-264 c13 -38 20 -44 58 -55 53 -15 123 -1 160 32 34 30 74 39 90 20 15 -18 -3
-45 -30 -45 -9 0 -34 -13 -55 -30 -21 -16 -43 -30 -50 -30 -7 0 -26 -15 -41
-32 -69 -83 -144 -62 -144 40 0 23 -6 45 -15 52 -9 7 -15 29 -15 51 0 53 24
51 42 -3z"/>
<path d="M2140 2881 c-5 -11 -10 -29 -10 -40 0 -11 -11 -28 -25 -37 -13 -9
-36 -39 -49 -67 -14 -29 -32 -63 -40 -77 -8 -14 -21 -38 -29 -55 -17 -35 -184
-361 -251 -489 -53 -103 -62 -170 -27 -205 11 -11 27 -33 35 -49 27 -52 148
-146 258 -200 110 -53 168 -72 228 -72 69 0 109 36 195 174 11 18 31 46 45 63
14 17 33 43 42 59 26 42 64 99 143 214 39 56 79 117 90 135 12 19 28 42 36 52
8 10 24 37 34 61 10 23 24 47 32 53 18 15 17 49 -2 49 -9 0 -20 -11 -25 -25
-5 -14 -21 -30 -34 -35 -13 -5 -28 -15 -33 -23 -4 -8 -28 -31 -51 -51 -34 -28
-53 -36 -82 -36 -48 0 -58 15 -31 44 45 48 18 82 -59 74 -43 -4 -59 -28 -41
-62 25 -46 9 -59 -67 -54 -54 3 -75 9 -101 28 -55 43 -131 119 -131 132 0 7
-14 25 -32 40 l-33 27 0 128 c0 117 2 131 23 160 13 18 22 46 22 67 0 39 -13
47 -30 17z m-28 -498 c27 -32 31 -70 8 -93 -11 -11 -28 -20 -38 -20 -32 0 -40
-17 -28 -60 12 -47 4 -59 -46 -69 -28 -6 -33 -11 -30 -32 10 -82 11 -82 -41
-95 -27 -7 -51 -15 -54 -17 -2 -3 3 -20 13 -38 16 -32 16 -33 -6 -51 -12 -10
-31 -18 -41 -18 -25 0 -89 27 -89 37 0 13 39 73 48 73 22 0 52 43 52 75 0 35
16 58 56 81 12 7 19 23 20 43 1 17 2 37 3 45 0 8 19 21 41 30 40 16 40 17 34
56 -4 26 -2 45 6 55 17 21 73 19 92 -2z m191 -113 c5 -4 7 -27 5 -51 -3 -39
-7 -46 -35 -58 -31 -14 -33 -17 -33 -68 0 -47 -2 -53 -24 -59 -36 -9 -54 -34
-58 -79 -3 -36 -7 -41 -43 -54 -52 -19 -49 -15 -46 -65 2 -54 -15 -71 -63 -62
-39 7 -51 20 -61 59 -9 35 6 53 51 62 41 7 52 27 37 65 -13 36 -7 44 45 66
l44 17 -6 42 c-8 48 4 63 57 74 34 8 33 7 20 75 -8 39 18 58 67 50 19 -4 39
-10 43 -14z m99 -237 c33 -30 18 -82 -31 -107 -21 -11 -30 -25 -34 -53 -8 -46
-31 -81 -62 -93 -17 -7 -23 -19 -28 -59 -8 -65 -12 -71 -47 -71 -23 0 -35 8
-56 39 -41 62 -21 91 64 91 39 0 42 17 7 50 -15 14 -25 33 -23 44 3 20 7 21
106 42 l23 5 -21 28 c-26 38 -25 45 7 76 32 29 68 32 95 8z"/>
<path d="M2834 1246 c-17 -13 -18 -18 -7 -46 10 -27 9 -36 -8 -63 -17 -29 -19
-52 -19 -250 0 -258 5 -277 77 -277 59 0 63 16 63 275 0 208 -2 233 -19 258
-15 24 -17 34 -8 57 19 50 -32 80 -79 46z"/>
<path d="M2237 1233 c-8 -10 -20 -36 -26 -58 l-11 -40 -278 3 c-243 4 -279 2
-291 -11 -9 -12 -13 -73 -13 -249 1 -227 1 -233 22 -250 20 -16 47 -18 240
-18 198 0 223 2 273 21 l56 21 29 -21 c28 -20 42 -21 251 -21 208 0 222 1 241
20 19 19 20 33 20 253 0 168 -3 236 -12 245 -8 8 -61 12 -173 12 -129 0 -165
3 -183 16 -12 8 -22 22 -22 30 0 8 -11 26 -25 39 -29 29 -75 33 -98 8z m-241
-237 c16 -12 20 -29 22 -109 4 -87 2 -97 -18 -117 -20 -20 -30 -22 -112 -18
-82 3 -92 5 -110 28 -18 22 -20 35 -15 108 5 87 14 108 50 115 55 11 164 6
183 -7z m600 -8 c12 -11 15 -37 15 -109 0 -122 -7 -129 -129 -129 -118 0 -122
5 -122 131 0 90 2 99 23 114 30 22 189 17 213 -7z"/>
<path d="M1062 1128 c-9 -9 -12 -77 -12 -243 0 -255 4 -275 59 -275 54 0 65
19 71 124 7 120 19 138 70 101 42 -31 71 -32 121 -3 53 30 64 17 65 -80 1 -42
2 -85 3 -94 3 -48 87 -67 115 -26 13 19 16 61 16 253 0 297 1 296 -136 185
-114 -93 -134 -94 -231 -12 -37 31 -74 63 -81 70 -17 15 -44 16 -60 0z"/>
<path d="M3006 1124 c-14 -13 -16 -50 -16 -245 0 -216 1 -230 20 -249 19 -19
33 -20 241 -20 203 0 223 2 248 20 28 19 28 19 80 0 45 -18 77 -20 272 -20
l220 0 25 25 c26 26 26 42 2 92 -15 30 -33 33 -196 33 -121 0 -144 2 -149 16
-11 28 18 34 172 34 83 0 155 4 162 8 23 15 33 65 33 170 0 163 21 152 -279
152 -213 0 -250 -2 -262 -16 -9 -11 -12 -55 -11 -167 3 -214 -12 -269 -64
-228 -25 19 -39 21 -185 21 -130 0 -160 3 -173 16 -13 13 -16 43 -16 172 0
184 -6 202 -70 202 -22 0 -45 -7 -54 -16z"/>
</g>
</svg>
